<svg width="485" height="288" viewBox="0 0 485 288" fill="none" xmlns="http://www.w3.org/2000/svg">
<path d="M18.64 19.84V76H4.96V19.84H18.64ZM78.7938 76H65.1138L42.2338 41.36V76H28.5538V19.84H42.2338L65.1138 54.64V19.84H78.7938V76ZM109.03 76.56C104.923 76.56 101.243 75.8933 97.99 74.56C94.7367 73.2267 92.1233 71.2533 90.15 68.64C88.23 66.0267 87.2167 62.88 87.11 59.2H101.67C101.883 61.28 102.603 62.88 103.83 64C105.057 65.0667 106.657 65.6 108.63 65.6C110.657 65.6 112.257 65.1467 113.43 64.24C114.603 63.28 115.19 61.9733 115.19 60.32C115.19 58.9333 114.71 57.7867 113.75 56.88C112.843 55.9733 111.697 55.2267 110.31 54.64C108.977 54.0533 107.057 53.3867 104.55 52.64C100.923 51.52 97.9633 50.4 95.67 49.28C93.3767 48.16 91.4033 46.5067 89.75 44.32C88.0967 42.1333 87.27 39.28 87.27 35.76C87.27 30.5333 89.1633 26.4533 92.95 23.52C96.7367 20.5333 101.67 19.04 107.75 19.04C113.937 19.04 118.923 20.5333 122.71 23.52C126.497 26.4533 128.523 30.56 128.79 35.84H113.99C113.883 34.0267 113.217 32.6133 111.99 31.6C110.763 30.5333 109.19 30 107.27 30C105.617 30 104.283 30.4533 103.27 31.36C102.257 32.2133 101.75 33.4667 101.75 35.12C101.75 36.9333 102.603 38.3467 104.31 39.36C106.017 40.3733 108.683 41.4667 112.31 42.64C115.937 43.8667 118.87 45.04 121.11 46.16C123.403 47.28 125.377 48.9067 127.03 51.04C128.683 53.1733 129.51 55.92 129.51 59.28C129.51 62.48 128.683 65.3867 127.03 68C125.43 70.6133 123.083 72.6933 119.99 74.24C116.897 75.7867 113.243 76.56 109.03 76.56ZM178.329 19.84V30.8H163.449V76H149.769V30.8H134.889V19.84H178.329ZM220.154 66.08H199.194L195.834 76H181.514L201.834 19.84H217.674L237.994 76H223.514L220.154 66.08ZM216.634 55.52L209.674 34.96L202.794 55.52H216.634ZM281.459 37.6C280.445 35.7333 278.979 34.32 277.059 33.36C275.192 32.3467 272.979 31.84 270.419 31.84C265.992 31.84 262.445 33.3067 259.779 36.24C257.112 39.12 255.779 42.9867 255.779 47.84C255.779 53.0133 257.165 57.0667 259.939 60C262.765 62.88 266.632 64.32 271.539 64.32C274.899 64.32 277.725 63.4667 280.019 61.76C282.365 60.0533 284.072 57.6 285.139 54.4H267.779V44.32H297.539V57.04C296.525 60.4533 294.792 63.6267 292.339 66.56C289.939 69.4933 286.872 71.8667 283.139 73.68C279.405 75.4933 275.192 76.4 270.499 76.4C264.952 76.4 259.992 75.2 255.619 72.8C251.299 70.3467 247.912 66.96 245.459 62.64C243.059 58.32 241.859 53.3867 241.859 47.84C241.859 42.2933 243.059 37.36 245.459 33.04C247.912 28.6667 251.299 25.28 255.619 22.88C259.939 20.4267 264.872 19.2 270.419 19.2C277.139 19.2 282.792 20.8267 287.379 24.08C292.019 27.3333 295.085 31.84 296.579 37.6H281.459ZM333.756 76L322.076 54.8H318.796V76H305.116V19.84H328.076C332.503 19.84 336.263 20.6133 339.356 22.16C342.503 23.7067 344.85 25.84 346.396 28.56C347.943 31.2267 348.716 34.2133 348.716 37.52C348.716 41.2533 347.65 44.5867 345.516 47.52C343.436 50.4533 340.343 52.5333 336.236 53.76L349.196 76H333.756ZM318.796 45.12H327.276C329.783 45.12 331.65 44.5067 332.876 43.28C334.156 42.0533 334.796 40.32 334.796 38.08C334.796 35.9467 334.156 34.2667 332.876 33.04C331.65 31.8133 329.783 31.2 327.276 31.2H318.796V45.12ZM392.264 66.08H371.304L367.944 76H353.624L373.944 19.84H389.784L410.104 76H395.624L392.264 66.08ZM388.744 55.52L381.784 34.96L374.904 55.52H388.744ZM479.888 19.84V76H466.208V42.32L453.648 76H442.608L429.968 42.24V76H416.288V19.84H432.448L448.208 58.72L463.808 19.84H479.888Z" fill="#172436"/>
<path d="M18.64 115.84V172H4.96V115.84H18.64ZM78.7938 172H65.1138L42.2338 137.36V172H28.5538V115.84H42.2338L65.1138 150.64V115.84H78.7938V172ZM109.03 172.56C104.923 172.56 101.243 171.893 97.99 170.56C94.7367 169.227 92.1233 167.253 90.15 164.64C88.23 162.027 87.2167 158.88 87.11 155.2H101.67C101.883 157.28 102.603 158.88 103.83 160C105.057 161.067 106.657 161.6 108.63 161.6C110.657 161.6 112.257 161.147 113.43 160.24C114.603 159.28 115.19 157.973 115.19 156.32C115.19 154.933 114.71 153.787 113.75 152.88C112.843 151.973 111.697 151.227 110.31 150.64C108.977 150.053 107.057 149.387 104.55 148.64C100.923 147.52 97.9633 146.4 95.67 145.28C93.3767 144.16 91.4033 142.507 89.75 140.32C88.0967 138.133 87.27 135.28 87.27 131.76C87.27 126.533 89.1633 122.453 92.95 119.52C96.7367 116.533 101.67 115.04 107.75 115.04C113.937 115.04 118.923 116.533 122.71 119.52C126.497 122.453 128.523 126.56 128.79 131.84H113.99C113.883 130.027 113.217 128.613 111.99 127.6C110.763 126.533 109.19 126 107.27 126C105.617 126 104.283 126.453 103.27 127.36C102.257 128.213 101.75 129.467 101.75 131.12C101.75 132.933 102.603 134.347 104.31 135.36C106.017 136.373 108.683 137.467 112.31 138.64C115.937 139.867 118.87 141.04 121.11 142.16C123.403 143.28 125.377 144.907 127.03 147.04C128.683 149.173 129.51 151.92 129.51 155.28C129.51 158.48 128.683 161.387 127.03 164C125.43 166.613 123.083 168.693 119.99 170.24C116.897 171.787 113.243 172.56 109.03 172.56ZM178.329 115.84V126.8H163.449V172H149.769V126.8H134.889V115.84H178.329ZM220.154 162.08H199.194L195.834 172H181.514L201.834 115.84H217.674L237.994 172H223.514L220.154 162.08ZM216.634 151.52L209.674 130.96L202.794 151.52H216.634ZM281.459 133.6C280.445 131.733 278.979 130.32 277.059 129.36C275.192 128.347 272.979 127.84 270.419 127.84C265.992 127.84 262.445 129.307 259.779 132.24C257.112 135.12 255.779 138.987 255.779 143.84C255.779 149.013 257.165 153.067 259.939 156C262.765 158.88 266.632 160.32 271.539 160.32C274.899 160.32 277.725 159.467 280.019 157.76C282.365 156.053 284.072 153.6 285.139 150.4H267.779V140.32H297.539V153.04C296.525 156.453 294.792 159.627 292.339 162.56C289.939 165.493 286.872 167.867 283.139 169.68C279.405 171.493 275.192 172.4 270.499 172.4C264.952 172.4 259.992 171.2 255.619 168.8C251.299 166.347 247.912 162.96 245.459 158.64C243.059 154.32 241.859 149.387 241.859 143.84C241.859 138.293 243.059 133.36 245.459 129.04C247.912 124.667 251.299 121.28 255.619 118.88C259.939 116.427 264.872 115.2 270.419 115.2C277.139 115.2 282.792 116.827 287.379 120.08C292.019 123.333 295.085 127.84 296.579 133.6H281.459ZM333.756 172L322.076 150.8H318.796V172H305.116V115.84H328.076C332.503 115.84 336.263 116.613 339.356 118.16C342.503 119.707 344.85 121.84 346.396 124.56C347.943 127.227 348.716 130.213 348.716 133.52C348.716 137.253 347.65 140.587 345.516 143.52C343.436 146.453 340.343 148.533 336.236 149.76L349.196 172H333.756ZM318.796 141.12H327.276C329.783 141.12 331.65 140.507 332.876 139.28C334.156 138.053 334.796 136.32 334.796 134.08C334.796 131.947 334.156 130.267 332.876 129.04C331.65 127.813 329.783 127.2 327.276 127.2H318.796V141.12ZM392.264 162.08H371.304L367.944 172H353.624L373.944 115.84H389.784L410.104 172H395.624L392.264 162.08ZM388.744 151.52L381.784 130.96L374.904 151.52H388.744ZM479.888 115.84V172H466.208V138.32L453.648 172H442.608L429.968 138.24V172H416.288V115.84H432.448L448.208 154.72L463.808 115.84H479.888Z" fill="#2E476B"/>
<path d="M18.64 211.84V268H4.96V211.84H18.64ZM78.7938 268H65.1138L42.2338 233.36V268H28.5538V211.84H42.2338L65.1138 246.64V211.84H78.7938V268ZM109.03 268.56C104.923 268.56 101.243 267.893 97.99 266.56C94.7367 265.227 92.1233 263.253 90.15 260.64C88.23 258.027 87.2167 254.88 87.11 251.2H101.67C101.883 253.28 102.603 254.88 103.83 256C105.057 257.067 106.657 257.6 108.63 257.6C110.657 257.6 112.257 257.147 113.43 256.24C114.603 255.28 115.19 253.973 115.19 252.32C115.19 250.933 114.71 249.787 113.75 248.88C112.843 247.973 111.697 247.227 110.31 246.64C108.977 246.053 107.057 245.387 104.55 244.64C100.923 243.52 97.9633 242.4 95.67 241.28C93.3767 240.16 91.4033 238.507 89.75 236.32C88.0967 234.133 87.27 231.28 87.27 227.76C87.27 222.533 89.1633 218.453 92.95 215.52C96.7367 212.533 101.67 211.04 107.75 211.04C113.937 211.04 118.923 212.533 122.71 215.52C126.497 218.453 128.523 222.56 128.79 227.84H113.99C113.883 226.027 113.217 224.613 111.99 223.6C110.763 222.533 109.19 222 107.27 222C105.617 222 104.283 222.453 103.27 223.36C102.257 224.213 101.75 225.467 101.75 227.12C101.75 228.933 102.603 230.347 104.31 231.36C106.017 232.373 108.683 233.467 112.31 234.64C115.937 235.867 118.87 237.04 121.11 238.16C123.403 239.28 125.377 240.907 127.03 243.04C128.683 245.173 129.51 247.92 129.51 251.28C129.51 254.48 128.683 257.387 127.03 260C125.43 262.613 123.083 264.693 119.99 266.24C116.897 267.787 113.243 268.56 109.03 268.56ZM178.329 211.84V222.8H163.449V268H149.769V222.8H134.889V211.84H178.329ZM220.154 258.08H199.194L195.834 268H181.514L201.834 211.84H217.674L237.994 268H223.514L220.154 258.08ZM216.634 247.52L209.674 226.96L202.794 247.52H216.634ZM281.459 229.6C280.445 227.733 278.979 226.32 277.059 225.36C275.192 224.347 272.979 223.84 270.419 223.84C265.992 223.84 262.445 225.307 259.779 228.24C257.112 231.12 255.779 234.987 255.779 239.84C255.779 245.013 257.165 249.067 259.939 252C262.765 254.88 266.632 256.32 271.539 256.32C274.899 256.32 277.725 255.467 280.019 253.76C282.365 252.053 284.072 249.6 285.139 246.4H267.779V236.32H297.539V249.04C296.525 252.453 294.792 255.627 292.339 258.56C289.939 261.493 286.872 263.867 283.139 265.68C279.405 267.493 275.192 268.4 270.499 268.4C264.952 268.4 259.992 267.2 255.619 264.8C251.299 262.347 247.912 258.96 245.459 254.64C243.059 250.32 241.859 245.387 241.859 239.84C241.859 234.293 243.059 229.36 245.459 225.04C247.912 220.667 251.299 217.28 255.619 214.88C259.939 212.427 264.872 211.2 270.419 211.2C277.139 211.2 282.792 212.827 287.379 216.08C292.019 219.333 295.085 223.84 296.579 229.6H281.459ZM333.756 268L322.076 246.8H318.796V268H305.116V211.84H328.076C332.503 211.84 336.263 212.613 339.356 214.16C342.503 215.707 344.85 217.84 346.396 220.56C347.943 223.227 348.716 226.213 348.716 229.52C348.716 233.253 347.65 236.587 345.516 239.52C343.436 242.453 340.343 244.533 336.236 245.76L349.196 268H333.756ZM318.796 237.12H327.276C329.783 237.12 331.65 236.507 332.876 235.28C334.156 234.053 334.796 232.32 334.796 230.08C334.796 227.947 334.156 226.267 332.876 225.04C331.65 223.813 329.783 223.2 327.276 223.2H318.796V237.12ZM392.264 258.08H371.304L367.944 268H353.624L373.944 211.84H389.784L410.104 268H395.624L392.264 258.08ZM388.744 247.52L381.784 226.96L374.904 247.52H388.744ZM479.888 211.84V268H466.208V234.32L453.648 268H442.608L429.968 234.24V268H416.288V211.84H432.448L448.208 250.72L463.808 211.84H479.888Z" fill="#748DB1"/>
</svg>
