<svg width="475" height="250" viewBox="0 0 475 250" fill="none" xmlns="http://www.w3.org/2000/svg">
<g clip-path="url(#clip0_536_309)">
<path d="M13.64 0.840038V57H-0.0400391V0.840038H13.64ZM73.7938 57H60.1138L37.2338 22.36V57H23.5538V0.840038H37.2338L60.1138 35.64V0.840038H73.7938V57ZM104.03 57.56C99.923 57.56 96.243 56.8933 92.99 55.56C89.7367 54.2267 87.1233 52.2533 85.15 49.64C83.23 47.0267 82.2167 43.88 82.11 40.2H96.67C96.883 42.28 97.603 43.88 98.83 45C100.057 46.0667 101.657 46.6 103.63 46.6C105.657 46.6 107.257 46.1467 108.43 45.24C109.603 44.28 110.19 42.9733 110.19 41.32C110.19 39.9333 109.71 38.7867 108.75 37.88C107.843 36.9733 106.697 36.2267 105.31 35.64C103.977 35.0533 102.057 34.3867 99.55 33.64C95.923 32.52 92.9633 31.4 90.67 30.28C88.3767 29.16 86.4033 27.5067 84.75 25.32C83.0967 23.1333 82.27 20.28 82.27 16.76C82.27 11.5333 84.1633 7.45334 87.95 4.52004C91.7367 1.53334 96.67 0.0400391 102.75 0.0400391C108.937 0.0400391 113.923 1.53334 117.71 4.52004C121.497 7.45334 123.523 11.56 123.79 16.84H108.99C108.883 15.0267 108.217 13.6133 106.99 12.6C105.763 11.5333 104.19 11 102.27 11C100.617 11 99.283 11.4533 98.27 12.36C97.257 13.2133 96.75 14.4667 96.75 16.12C96.75 17.9333 97.603 19.3467 99.31 20.36C101.017 21.3733 103.683 22.4667 107.31 23.64C110.937 24.8667 113.87 26.04 116.11 27.16C118.403 28.28 120.377 29.9067 122.03 32.04C123.683 34.1733 124.51 36.92 124.51 40.28C124.51 43.48 123.683 46.3867 122.03 49C120.43 51.6133 118.083 53.6933 114.99 55.24C111.897 56.7867 108.243 57.56 104.03 57.56ZM173.329 0.840038V11.8H158.449V57H144.769V11.8H129.889V0.840038H173.329ZM215.154 47.08H194.194L190.834 57H176.514L196.834 0.840038H212.674L232.994 57H218.514L215.154 47.08ZM211.634 36.52L204.674 15.96L197.794 36.52H211.634ZM276.459 18.6C275.445 16.7333 273.979 15.32 272.059 14.36C270.192 13.3467 267.979 12.84 265.419 12.84C260.992 12.84 257.445 14.3067 254.779 17.24C252.112 20.12 250.779 23.9867 250.779 28.84C250.779 34.0133 252.165 38.0667 254.939 41C257.765 43.88 261.632 45.32 266.539 45.32C269.899 45.32 272.725 44.4667 275.019 42.76C277.365 41.0533 279.072 38.6 280.139 35.4H262.779V25.32H292.539V38.04C291.525 41.4533 289.792 44.6267 287.339 47.56C284.939 50.4933 281.872 52.8667 278.139 54.68C274.405 56.4933 270.192 57.4 265.499 57.4C259.952 57.4 254.992 56.2 250.619 53.8C246.299 51.3467 242.912 47.96 240.459 43.64C238.059 39.32 236.859 34.3867 236.859 28.84C236.859 23.2933 238.059 18.36 240.459 14.04C242.912 9.66674 246.299 6.28004 250.619 3.88004C254.939 1.42674 259.872 0.200039 265.419 0.200039C272.139 0.200039 277.792 1.82674 282.379 5.08004C287.019 8.33334 290.085 12.84 291.579 18.6H276.459ZM328.756 57L317.076 35.8H313.796V57H300.116V0.840038H323.076C327.503 0.840038 331.263 1.61334 334.356 3.16004C337.503 4.70674 339.85 6.84004 341.396 9.56004C342.943 12.2267 343.716 15.2133 343.716 18.52C343.716 22.2533 342.65 25.5867 340.516 28.52C338.436 31.4533 335.343 33.5333 331.236 34.76L344.196 57H328.756ZM313.796 26.12H322.276C324.783 26.12 326.65 25.5067 327.876 24.28C329.156 23.0533 329.796 21.32 329.796 19.08C329.796 16.9467 329.156 15.2667 327.876 14.04C326.65 12.8133 324.783 12.2 322.276 12.2H313.796V26.12ZM387.264 47.08H366.304L362.944 57H348.624L368.944 0.840038H384.784L405.104 57H390.624L387.264 47.08ZM383.744 36.52L376.784 15.96L369.904 36.52H383.744ZM474.888 0.840038V57H461.208V23.32L448.648 57H437.608L424.968 23.24V57H411.288V0.840038H427.448L443.208 39.72L458.808 0.840038H474.888Z" fill="#172436"/>
<path d="M13.64 96.84V153H-0.0400391V96.84H13.64ZM73.7938 153H60.1138L37.2338 118.36V153H23.5538V96.84H37.2338L60.1138 131.64V96.84H73.7938V153ZM104.03 153.56C99.923 153.56 96.243 152.893 92.99 151.56C89.7367 150.227 87.1233 148.253 85.15 145.64C83.23 143.027 82.2167 139.88 82.11 136.2H96.67C96.883 138.28 97.603 139.88 98.83 141C100.057 142.067 101.657 142.6 103.63 142.6C105.657 142.6 107.257 142.147 108.43 141.24C109.603 140.28 110.19 138.973 110.19 137.32C110.19 135.933 109.71 134.787 108.75 133.88C107.843 132.973 106.697 132.227 105.31 131.64C103.977 131.053 102.057 130.387 99.55 129.64C95.923 128.52 92.9633 127.4 90.67 126.28C88.3767 125.16 86.4033 123.507 84.75 121.32C83.0967 119.133 82.27 116.28 82.27 112.76C82.27 107.533 84.1633 103.453 87.95 100.52C91.7367 97.533 96.67 96.04 102.75 96.04C108.937 96.04 113.923 97.533 117.71 100.52C121.497 103.453 123.523 107.56 123.79 112.84H108.99C108.883 111.027 108.217 109.613 106.99 108.6C105.763 107.533 104.19 107 102.27 107C100.617 107 99.283 107.453 98.27 108.36C97.257 109.213 96.75 110.467 96.75 112.12C96.75 113.933 97.603 115.347 99.31 116.36C101.017 117.373 103.683 118.467 107.31 119.64C110.937 120.867 113.87 122.04 116.11 123.16C118.403 124.28 120.377 125.907 122.03 128.04C123.683 130.173 124.51 132.92 124.51 136.28C124.51 139.48 123.683 142.387 122.03 145C120.43 147.613 118.083 149.693 114.99 151.24C111.897 152.787 108.243 153.56 104.03 153.56ZM173.329 96.84V107.8H158.449V153H144.769V107.8H129.889V96.84H173.329ZM215.154 143.08H194.194L190.834 153H176.514L196.834 96.84H212.674L232.994 153H218.514L215.154 143.08ZM211.634 132.52L204.674 111.96L197.794 132.52H211.634ZM276.459 114.6C275.445 112.733 273.979 111.32 272.059 110.36C270.192 109.347 267.979 108.84 265.419 108.84C260.992 108.84 257.445 110.307 254.779 113.24C252.112 116.12 250.779 119.987 250.779 124.84C250.779 130.013 252.165 134.067 254.939 137C257.765 139.88 261.632 141.32 266.539 141.32C269.899 141.32 272.725 140.467 275.019 138.76C277.365 137.053 279.072 134.6 280.139 131.4H262.779V121.32H292.539V134.04C291.525 137.453 289.792 140.627 287.339 143.56C284.939 146.493 281.872 148.867 278.139 150.68C274.405 152.493 270.192 153.4 265.499 153.4C259.952 153.4 254.992 152.2 250.619 149.8C246.299 147.347 242.912 143.96 240.459 139.64C238.059 135.32 236.859 130.387 236.859 124.84C236.859 119.293 238.059 114.36 240.459 110.04C242.912 105.667 246.299 102.28 250.619 99.88C254.939 97.427 259.872 96.2 265.419 96.2C272.139 96.2 277.792 97.827 282.379 101.08C287.019 104.333 290.085 108.84 291.579 114.6H276.459ZM328.756 153L317.076 131.8H313.796V153H300.116V96.84H323.076C327.503 96.84 331.263 97.613 334.356 99.16C337.503 100.707 339.85 102.84 341.396 105.56C342.943 108.227 343.716 111.213 343.716 114.52C343.716 118.253 342.65 121.587 340.516 124.52C338.436 127.453 335.343 129.533 331.236 130.76L344.196 153H328.756ZM313.796 122.12H322.276C324.783 122.12 326.65 121.507 327.876 120.28C329.156 119.053 329.796 117.32 329.796 115.08C329.796 112.947 329.156 111.267 327.876 110.04C326.65 108.813 324.783 108.2 322.276 108.2H313.796V122.12ZM387.264 143.08H366.304L362.944 153H348.624L368.944 96.84H384.784L405.104 153H390.624L387.264 143.08ZM383.744 132.52L376.784 111.96L369.904 132.52H383.744ZM474.888 96.84V153H461.208V119.32L448.648 153H437.608L424.968 119.24V153H411.288V96.84H427.448L443.208 135.72L458.808 96.84H474.888Z" fill="#2E476B"/>
<path d="M13.64 192.84V249H-0.0400391V192.84H13.64ZM73.7938 249H60.1138L37.2338 214.36V249H23.5538V192.84H37.2338L60.1138 227.64V192.84H73.7938V249ZM104.03 249.56C99.923 249.56 96.243 248.893 92.99 247.56C89.7367 246.227 87.1233 244.253 85.15 241.64C83.23 239.027 82.2167 235.88 82.11 232.2H96.67C96.883 234.28 97.603 235.88 98.83 237C100.057 238.067 101.657 238.6 103.63 238.6C105.657 238.6 107.257 238.147 108.43 237.24C109.603 236.28 110.19 234.973 110.19 233.32C110.19 231.933 109.71 230.787 108.75 229.88C107.843 228.973 106.697 228.227 105.31 227.64C103.977 227.053 102.057 226.387 99.55 225.64C95.923 224.52 92.9633 223.4 90.67 222.28C88.3767 221.16 86.4033 219.507 84.75 217.32C83.0967 215.133 82.27 212.28 82.27 208.76C82.27 203.533 84.1633 199.453 87.95 196.52C91.7367 193.533 96.67 192.04 102.75 192.04C108.937 192.04 113.923 193.533 117.71 196.52C121.497 199.453 123.523 203.56 123.79 208.84H108.99C108.883 207.027 108.217 205.613 106.99 204.6C105.763 203.533 104.19 203 102.27 203C100.617 203 99.283 203.453 98.27 204.36C97.257 205.213 96.75 206.467 96.75 208.12C96.75 209.933 97.603 211.347 99.31 212.36C101.017 213.373 103.683 214.467 107.31 215.64C110.937 216.867 113.87 218.04 116.11 219.16C118.403 220.28 120.377 221.907 122.03 224.04C123.683 226.173 124.51 228.92 124.51 232.28C124.51 235.48 123.683 238.387 122.03 241C120.43 243.613 118.083 245.693 114.99 247.24C111.897 248.787 108.243 249.56 104.03 249.56ZM173.329 192.84V203.8H158.449V249H144.769V203.8H129.889V192.84H173.329ZM215.154 239.08H194.194L190.834 249H176.514L196.834 192.84H212.674L232.994 249H218.514L215.154 239.08ZM211.634 228.52L204.674 207.96L197.794 228.52H211.634ZM276.459 210.6C275.445 208.733 273.979 207.32 272.059 206.36C270.192 205.347 267.979 204.84 265.419 204.84C260.992 204.84 257.445 206.307 254.779 209.24C252.112 212.12 250.779 215.987 250.779 220.84C250.779 226.013 252.165 230.067 254.939 233C257.765 235.88 261.632 237.32 266.539 237.32C269.899 237.32 272.725 236.467 275.019 234.76C277.365 233.053 279.072 230.6 280.139 227.4H262.779V217.32H292.539V230.04C291.525 233.453 289.792 236.627 287.339 239.56C284.939 242.493 281.872 244.867 278.139 246.68C274.405 248.493 270.192 249.4 265.499 249.4C259.952 249.4 254.992 248.2 250.619 245.8C246.299 243.347 242.912 239.96 240.459 235.64C238.059 231.32 236.859 226.387 236.859 220.84C236.859 215.293 238.059 210.36 240.459 206.04C242.912 201.667 246.299 198.28 250.619 195.88C254.939 193.427 259.872 192.2 265.419 192.2C272.139 192.2 277.792 193.827 282.379 197.08C287.019 200.333 290.085 204.84 291.579 210.6H276.459ZM328.756 249L317.076 227.8H313.796V249H300.116V192.84H323.076C327.503 192.84 331.263 193.613 334.356 195.16C337.503 196.707 339.85 198.84 341.396 201.56C342.943 204.227 343.716 207.213 343.716 210.52C343.716 214.253 342.65 217.587 340.516 220.52C338.436 223.453 335.343 225.533 331.236 226.76L344.196 249H328.756ZM313.796 218.12H322.276C324.783 218.12 326.65 217.507 327.876 216.28C329.156 215.053 329.796 213.32 329.796 211.08C329.796 208.947 329.156 207.267 327.876 206.04C326.65 204.813 324.783 204.2 322.276 204.2H313.796V218.12ZM387.264 239.08H366.304L362.944 249H348.624L368.944 192.84H384.784L405.104 249H390.624L387.264 239.08ZM383.744 228.52L376.784 207.96L369.904 228.52H383.744ZM474.888 192.84V249H461.208V215.32L448.648 249H437.608L424.968 215.24V249H411.288V192.84H427.448L443.208 231.72L458.808 192.84H474.888Z" fill="#748DB1"/>
</g>
<defs>
<clipPath id="clip0_536_309">
<rect width="475" height="250" fill="white"/>
</clipPath>
</defs>
</svg>
